<svg xmlns="http://www.w3.org/2000/svg" viewBox="0 0 1200 630">
  <defs>
    <linearGradient id="bg" x1="0" y1="0" x2="1" y2="1">
      <stop offset="0%" stop-color="#ffffff" />
      <stop offset="100%" stop-color="#f3f3f3" />
    </linearGradient>
    <linearGradient id="accent" x1="0" y1="0" x2="1" y2="0">
      <stop offset="0%" stop-color="#c8a24a" />
      <stop offset="100%" stop-color="#a88334" />
    </linearGradient>
  </defs>

  <rect width="1200" height="630" fill="url(#bg)" />

  <g stroke="#e8e8e8" stroke-width="1">
    <path d="M80 80H1120" />
    <path d="M80 160H1120" />
    <path d="M80 240H1120" />
    <path d="M80 320H1120" />
    <path d="M80 400H1120" />
    <path d="M80 480H1120" />
    <path d="M80 560H1120" />
    <path d="M120 50V580" />
    <path d="M220 50V580" />
    <path d="M320 50V580" />
    <path d="M420 50V580" />
    <path d="M520 50V580" />
    <path d="M620 50V580" />
    <path d="M720 50V580" />
    <path d="M820 50V580" />
    <path d="M920 50V580" />
    <path d="M1020 50V580" />
  </g>

  <rect x="90" y="90" width="1020" height="450" rx="20" fill="#ffffff" stroke="#e2e2e2" />

  <path d="M160 430L290 320L420 360L560 230L700 285L860 170L1020 240" fill="none" stroke="#2c2c2c" stroke-opacity="0.42" stroke-width="7" stroke-linecap="round" stroke-linejoin="round" />
  <path d="M160 470C240 420 320 450 400 390C490 320 570 350 650 295C740 240 850 260 1020 180" fill="none" stroke="url(#accent)" stroke-width="8" stroke-linecap="round" />

  <text x="150" y="205" fill="#2c2c2c" font-family="Inter, Arial, sans-serif" font-size="60" font-weight="700">StrucLab</text>
  <text x="150" y="255" fill="#595959" font-family="Inter, Arial, sans-serif" font-size="30">Structural &amp; Computational Engineering</text>

  <rect x="150" y="286" width="300" height="10" rx="5" fill="url(#accent)" />
</svg>
